<?xml version="1.0" standalone="no"?>
<!DOCTYPE svg PUBLIC "-//W3C//DTD SVG 20010904//EN"
 "http://www.w3.org/TR/2001/REC-SVG-20010904/DTD/svg10.dtd">
<svg version="1.0" xmlns="http://www.w3.org/2000/svg"
 width="300.000000pt" height="322.000000pt" viewBox="0 0 300.000000 322.000000"
 preserveAspectRatio="xMidYMid meet">
<metadata>
Created by potrace 1.10, written by Peter Selinger 2001-2011
</metadata>
<g transform="translate(0.000000,322.000000) scale(0.100000,-0.100000)"
fill="#000000" stroke="none">
<path d="M1353 2923 c31 -94 45 -160 42 -191 -1 -20 -3 -48 -4 -62 -1 -19 -4
-21 -13 -12 -9 9 -9 25 -1 64 8 42 8 55 -3 66 -14 14 -18 25 -32 96 -4 22 -14
42 -21 44 -18 6 -8 -77 19 -157 10 -31 20 -75 23 -98 5 -40 4 -42 -15 -32 -33
18 -165 158 -178 190 -9 21 -16 27 -25 19 -6 -5 -15 -7 -18 -3 -4 3 -7 0 -7
-8 0 -19 59 -91 70 -84 4 3 10 -4 13 -14 4 -16 110 -108 165 -142 12 -8 22
-20 22 -27 0 -7 5 -10 10 -7 6 3 15 -6 20 -20 15 -39 11 -55 -5 -20 -7 17 -14
24 -14 17 -1 -7 11 -36 25 -64 l26 -51 -88 79 c-48 43 -120 109 -160 147 -40
37 -76 67 -79 67 -19 0 -45 -23 -45 -41 0 -59 56 -121 240 -268 137 -110 130
-105 136 -99 2 3 -36 36 -86 73 l-91 68 22 23 c12 13 20 27 17 30 -4 3 -14 -6
-23 -20 -10 -14 -22 -23 -27 -20 -5 3 1 18 14 33 l23 26 -26 -23 c-14 -12 -28
-19 -32 -16 -3 4 5 15 18 26 14 11 25 24 25 31 0 6 -14 -2 -30 -18 l-30 -29
-55 54 c-55 54 -71 80 -37 61 13 -7 22 -5 38 10 19 18 22 18 28 4 3 -9 2 -14
-3 -11 -4 3 -16 -3 -26 -13 -13 -16 -14 -19 -2 -17 8 1 22 8 31 16 13 10 20
10 28 2 9 -9 6 -18 -11 -36 -22 -24 -22 -25 -3 -35 26 -14 45 5 31 31 -20 36
10 16 127 -88 179 -159 199 -175 218 -168 9 3 14 9 11 14 -2 4 54 17 125 28
l129 22 115 -61 c127 -66 163 -71 152 -21 -25 109 -41 154 -58 163 -29 16 -31
7 -8 -50 31 -79 23 -103 -21 -62 -11 10 -44 31 -75 46 l-55 28 29 31 c35 36
75 112 69 129 -3 7 -8 0 -12 -15 -4 -16 -11 -25 -16 -22 -5 3 -31 -18 -56 -47
l-47 -52 -12 28 c-7 17 -13 23 -16 15 -3 -11 -6 -11 -10 1 -7 18 63 77 147
124 60 34 60 34 54 40 -8 7 -125 -51 -165 -81 -19 -15 -38 -23 -42 -19 -10 10
50 58 116 90 31 16 51 30 44 32 -19 7 -139 -53 -169 -84 -14 -15 -23 -21 -18
-13 5 9 5 12 -1 7 -5 -5 -9 -14 -9 -19 0 -6 -6 -13 -14 -16 -9 -3 -11 0 -6 9
5 7 -6 3 -23 -10 -39 -27 -42 -38 -4 -14 25 16 25 14 -7 -19 -49 -53 -28 -77
32 -37 l32 22 -33 -34 c-28 -30 -34 -32 -52 -21 -26 16 -48 5 -88 -45 l-31
-38 -1 27 c0 19 8 33 28 45 39 24 52 43 46 68 -3 14 2 27 17 40 l22 20 -17
-27 c-12 -18 -14 -28 -6 -33 13 -8 25 1 25 19 0 7 16 26 36 44 43 37 178 122
195 122 7 0 16 4 19 10 6 10 -56 2 -65 -9 -13 -16 -92 -61 -98 -57 -5 3 -38
-18 -75 -45 -59 -45 -67 -55 -67 -84 0 -24 -7 -37 -25 -49 -33 -21 -35 -21
-35 12 0 16 12 42 30 62 16 19 29 41 30 48 0 6 7 12 16 12 10 0 14 6 11 14 -4
9 2 17 14 21 11 4 18 12 16 19 -9 22 44 77 97 100 100 44 101 87 4 135 -33 17
-69 31 -79 31 -29 0 -39 -32 -32 -107 4 -46 2 -77 -7 -92 -10 -19 -9 -25 1
-32 10 -6 7 -9 -10 -9 -16 0 -21 -4 -17 -15 3 -8 1 -15 -4 -15 -5 0 -23 -28
-39 -62 l-30 -63 0 196 c-1 177 -3 198 -19 212 -24 22 -35 21 -55 0 -11 -14
-17 -54 -22 -171 l-8 -153 -17 50 c-9 28 -24 59 -33 69 -10 10 -17 35 -17 55
0 50 -48 177 -67 177 -10 0 -13 -6 -10 -17z m203 -29 c-3 -9 -6 -135 -6 -280
l0 -264 -25 16 c-15 10 -24 23 -21 33 3 9 8 122 12 251 3 131 11 241 16 248
15 17 31 15 24 -4z m176 -89 c3 -30 7 -58 10 -61 6 -5 108 42 108 51 0 2 -21
-5 -46 -16 -26 -11 -48 -18 -49 -17 -1 2 -5 22 -9 45 -7 51 7 63 38 34 12 -12
30 -21 39 -21 9 0 19 -5 22 -10 4 -6 12 -7 18 -3 7 4 5 -4 -4 -17 -9 -14 -20
-25 -25 -24 -14 1 -97 -45 -106 -59 -4 -6 -7 12 -6 40 0 28 -3 65 -7 82 -4 18
-2 31 3 31 5 0 12 -25 14 -55z m-593 -114 c7 -5 10 -14 7 -20 -10 -15 -28 -3
-20 12 4 7 3 8 -1 4 -17 -15 -13 -36 6 -32 23 5 33 -9 16 -22 -15 -12 -37 -11
-36 1 0 5 -5 12 -11 16 -9 6 -9 13 1 29 15 23 18 24 38 12z m305 -36 c21 -43
46 -114 46 -128 0 -23 -61 49 -70 82 -22 78 -5 109 24 46z m374 -152 c-6 -7
-14 -11 -18 -8 -4 3 -19 -4 -33 -15 -44 -35 -43 -21 3 25 38 39 46 43 51 28 4
-10 2 -24 -3 -30z m-318 -60 c0 -24 -3 -43 -8 -43 -7 0 -52 116 -52 134 0 6
14 -3 30 -19 24 -23 30 -37 30 -72z m467 54 c-8 -15 -30 -40 -50 -55 -27 -22
-33 -32 -24 -41 8 -8 8 -14 -1 -23 -9 -9 -16 -9 -28 3 -14 15 -9 22 48 80 35
36 64 64 66 63 1 0 -4 -13 -11 -27z m-124 -83 c-4 -12 -213 -74 -213 -63 0 5
14 24 31 44 30 34 32 35 51 18 18 -16 21 -15 66 30 l47 47 11 -32 c6 -18 9
-38 7 -44z m-256 -61 c-2 -21 -4 -4 -4 37 0 41 2 58 4 38 2 -21 2 -55 0 -75z
m502 25 c11 -34 19 -63 17 -65 -2 -3 -12 20 -21 49 -10 29 -20 59 -23 66 -2 6
-2 12 1 12 3 0 15 -28 26 -62z m21 -98 c0 -18 -22 -22 -37 -7 -21 21 -8 40 18
27 10 -6 19 -15 19 -20z"/>
<path d="M965 2605 c-29 -28 -32 -57 -8 -76 15 -12 16 -12 10 4 -4 10 -3 16 2
12 5 -3 11 5 13 17 4 32 39 34 67 4 25 -27 20 -50 -10 -41 -10 3 -27 7 -38 10
-10 3 -21 0 -24 -8 -3 -9 10 -13 51 -15 31 -1 61 -7 65 -11 6 -6 -9 -8 -34 -6
-42 4 -42 4 -9 -4 19 -5 44 -12 54 -16 14 -6 17 -5 12 3 -9 14 3 15 23 3 23
-15 -55 -26 -85 -12 -35 16 -44 13 -14 -4 29 -16 19 -20 -11 -4 -11 5 -17 15
-13 21 4 7 -2 8 -17 3 -23 -7 -23 -7 -4 8 19 14 18 15 -10 13 -52 -5 -75 -16
-81 -43 -6 -21 -1 -31 20 -50 15 -13 35 -23 46 -23 10 0 25 -3 33 -6 9 -3 24
3 35 14 23 23 90 25 116 3 8 -7 53 -15 98 -19 77 -5 82 -4 69 12 -8 9 -20 15
-28 12 -17 -7 -134 23 -148 37 -7 7 -4 8 9 3 14 -5 17 -2 12 9 -4 10 13 6 55
-16 34 -17 63 -28 66 -25 7 7 -63 50 -135 82 -34 16 -61 33 -58 39 7 21 -26
67 -59 81 -44 18 -42 18 -70 -11z m39 -146 c36 -17 30 -46 -8 -41 -36 5 -56
19 -56 38 0 17 30 18 64 3z"/>
<path d="M1348 2351 c-1 -4 -23 -11 -47 -14 -29 -4 -40 -2 -30 4 43 27 -136
-9 -289 -58 -78 -25 -83 -29 -79 -52 3 -13 0 -33 -6 -42 -6 -10 -8 -21 -5 -25
4 -3 53 10 110 29 102 35 216 60 333 72 l60 7 -74 -54 c-185 -133 -387 -280
-395 -288 -12 -12 30 -77 55 -85 11 -4 25 -3 32 3 7 5 70 56 141 113 71 57
143 115 160 129 17 13 59 48 94 77 34 29 67 53 73 53 5 0 -3 -21 -18 -47 -23
-40 -28 -59 -27 -113 0 -40 7 -79 17 -100 10 -19 15 -26 11 -15 -22 78 -25
128 -8 181 18 57 52 102 42 54 -3 -14 -15 -48 -25 -76 -14 -34 -17 -57 -11
-73 4 -13 6 -26 3 -31 -2 -4 6 -34 19 -66 23 -57 46 -163 26 -119 -5 11 -9 30
-9 43 -1 12 -4 22 -8 21 -16 -2 -53 14 -53 22 0 13 23 6 38 -11 12 -13 13 -13
8 3 -3 10 -6 22 -6 26 0 5 -21 8 -47 7 -42 -1 -50 -5 -71 -36 -45 -65 -13
-180 57 -210 41 -17 82 -2 102 37 l15 30 16 -27 c23 -40 68 -53 109 -32 46 23
71 71 71 134 0 46 -4 55 -32 80 -23 21 -37 27 -53 22 -41 -12 -45 -27 -5 -20
32 6 39 3 58 -21 18 -23 21 -37 17 -76 -11 -118 -122 -159 -164 -60 -21 51
-13 112 25 200 37 83 40 134 12 181 -25 41 -25 45 0 32 11 -6 20 -19 20 -29 0
-10 3 -21 7 -25 20 -20 11 -86 -18 -141 -40 -76 -53 -179 -29 -226 25 -46 85
-48 114 -4 23 35 27 132 6 145 -23 15 -66 12 -80 -5 -7 -8 -17 -15 -23 -15 -5
0 -3 8 6 18 10 10 14 21 11 25 -3 3 3 19 14 35 12 15 26 50 33 76 11 46 8 71
-18 135 -9 23 19 2 109 -80 46 -42 115 -103 153 -136 39 -33 90 -79 115 -102
l45 -42 38 41 c21 22 35 45 32 51 -4 5 -88 73 -188 150 -176 136 -210 167
-171 155 40 -12 160 -31 250 -40 51 -6 65 -4 84 12 18 15 22 25 16 46 -9 37
-28 41 -92 21 -54 -17 -84 -15 -84 4 0 6 12 8 28 5 15 -3 38 -1 52 5 21 8 15
10 -36 10 -33 1 -86 6 -117 11 -31 6 -69 13 -84 15 -15 2 -55 11 -87 20 -33 9
-71 13 -85 10 l-26 -7 32 -27 c30 -25 31 -28 16 -44 -9 -9 -14 -19 -11 -22 3
-4 14 7 24 24 10 17 22 31 26 31 14 0 8 -16 -12 -35 -11 -10 -17 -21 -15 -25
3 -4 -2 -11 -11 -14 -21 -8 -24 -8 -21 3 1 4 -29 33 -68 63 -64 50 -74 54
-112 50 -38 -4 -43 -1 -57 27 -17 32 -22 37 -28 22z m-8 -72 c-130 -17 -238
-39 -311 -63 -41 -13 -83 -27 -94 -31 -18 -6 -19 -6 -2 5 33 21 158 59 245 74
127 23 133 23 182 23 37 1 34 -1 -20 -8z m100 -38 c0 -5 -7 -14 -16 -21 -12
-11 -18 -10 -31 3 -23 22 0 52 28 36 10 -5 19 -13 19 -18z m77 17 c4 -7 6 -21
5 -31 -2 -10 6 -21 20 -26 22 -8 22 -9 4 -17 -24 -9 -56 27 -56 62 0 26 14 32
27 12z m258 -22 c33 -10 42 -15 25 -15 -30 -1 -70 -27 -70 -45 0 -15 51 -85
63 -86 4 0 15 -7 25 -16 9 -9 62 -49 117 -90 127 -95 143 -110 128 -125 -12
-12 -64 30 -247 195 -44 39 -90 79 -104 88 -39 26 -44 43 -25 77 21 35 21 35
88 17z m-421 -61 c-4 -8 -9 -15 -13 -15 -3 0 -19 -12 -36 -27 -64 -60 -300
-243 -313 -243 -34 0 1 41 95 110 55 41 111 82 123 90 13 8 35 25 49 36 23 19
92 64 98 64 1 0 0 -7 -3 -15z m202 -23 c47 -32 56 -103 23 -179 -11 -26 -26
-59 -31 -73 -10 -23 -12 -20 -34 45 -28 84 -29 121 -8 175 16 39 28 47 50 32z
m-145 -250 c-5 -10 -17 -24 -25 -32 -20 -16 -20 -73 0 -115 19 -40 63 -62 92
-46 30 16 40 13 18 -4 -50 -38 -115 -2 -136 75 -12 46 -3 89 27 122 21 23 37
23 24 0z m63 -41 c22 -25 32 -92 17 -120 -18 -33 -57 -27 -81 12 -24 39 -26
84 -3 109 21 23 45 23 67 -1z m206 4 c17 -21 7 -100 -15 -125 -37 -41 -75 -18
-75 46 0 70 56 119 90 79z"/>
<path d="M1350 2072 c-36 -37 -83 -88 -104 -112 l-39 -43 36 -30 c36 -28 46
-50 28 -62 -5 -3 -13 0 -17 6 -5 8 -3 9 5 4 9 -5 12 -2 9 11 -1 11 -17 26 -35
34 -40 18 -50 40 -27 57 20 15 14 26 -9 17 -21 -8 -29 -32 -18 -52 11 -19 0
-39 -57 -101 -24 -25 -50 -56 -59 -69 -15 -21 -15 -25 0 -40 16 -15 20 -13 64
35 27 28 59 69 73 91 29 47 37 51 42 20 2 -15 10 -23 23 -23 25 0 33 46 11 65
-14 11 -10 20 32 74 72 92 130 186 115 186 -4 0 -37 -31 -73 -68z m31 10 c-11
-16 -27 -35 -36 -42 -8 -7 -15 -18 -15 -24 0 -6 -9 -17 -20 -24 -11 -7 -20
-18 -20 -25 0 -7 -9 -18 -20 -25 -11 -7 -20 -19 -20 -27 0 -8 -4 -15 -10 -15
-17 0 -12 11 32 69 69 91 163 189 109 113z"/>
<path d="M1690 2060 c0 -35 25 -82 108 -198 79 -110 133 -172 151 -172 33 0
19 36 -46 123 -38 50 -88 117 -111 147 -22 30 -55 71 -71 90 -30 35 -30 35
-31 10z m90 -107 c0 -33 -20 -11 -63 67 -18 34 -17 33 22 -10 22 -25 41 -51
41 -57z"/>
<path d="M1375 1514 c-196 -15 -408 -48 -547 -84 -87 -22 -85 -7 -30 -200 28
-99 42 -134 53 -132 445 106 835 115 1243 28 61 -13 118 -27 126 -30 13 -5 24
21 56 136 23 79 44 151 48 160 6 13 -1 19 -34 28 -202 54 -451 89 -680 94
-102 2 -207 2 -235 0z m275 -39 c5 -3 -1 -18 -14 -32 -24 -25 -24 -28 -10 -62
18 -42 5 -63 -26 -43 -11 7 -53 12 -95 12 -68 0 -91 9 -65 25 19 12 10 53 -15
73 -17 13 -21 22 -13 25 20 7 227 9 238 2z m-376 -11 c13 -5 12 -10 -9 -26
-24 -19 -28 -19 -57 -5 l-32 16 29 6 c26 6 45 11 52 14 1 1 8 -2 17 -5z m628
-9 c54 -7 102 -16 108 -20 7 -4 1 -14 -15 -27 -27 -21 -33 -56 -13 -76 21 -21
-73 -14 -115 8 -28 15 -42 18 -57 10 -32 -17 -42 -12 -26 12 22 32 20 55 -9
83 l-24 25 27 0 c15 0 71 -7 124 -15z m-482 -45 c0 -15 -7 -20 -25 -20 -23 0
-25 -4 -25 -41 l0 -41 105 3 c66 2 109 -1 116 -8 21 -21 -24 -31 -163 -35
-129 -4 -138 -3 -138 14 0 11 7 18 20 18 17 0 20 7 20 40 0 36 -2 40 -25 40
-18 0 -25 5 -25 19 0 17 8 21 53 24 28 2 60 4 70 5 11 1 17 -5 17 -18z m321
10 c22 0 29 -5 29 -20 0 -13 -7 -20 -20 -20 -11 0 -20 -4 -20 -9 0 -5 -3 -23
-6 -40 -6 -27 -4 -31 15 -31 15 0 21 -6 21 -21 0 -17 -4 -20 -22 -15 -13 3
-40 6 -60 6 -31 0 -38 4 -38 20 0 13 7 20 20 20 14 0 20 7 20 24 0 13 3 31 6
40 5 12 0 16 -20 16 -15 0 -26 6 -26 13 0 22 13 29 44 23 16 -3 41 -6 57 -6z
m-800 -35 c-33 -38 -38 -63 -19 -98 7 -12 13 -29 13 -37 1 -23 18 -46 44 -60
l25 -13 -29 -14 c-15 -8 -48 -16 -73 -16 l-45 -2 -24 70 c-13 39 -25 93 -26
120 l-2 50 65 17 c102 25 107 24 71 -17z m278 9 c7 -7 -21 -34 -30 -29 -12 8
-192 -24 -203 -36 -14 -13 25 -11 123 6 76 13 87 13 108 0 27 -18 30 -46 6
-67 -23 -20 -240 -55 -254 -41 -18 18 13 30 120 46 57 9 106 19 109 22 16 15
-17 15 -113 0 -105 -18 -107 -18 -127 2 -26 26 -17 57 20 72 63 26 222 42 241
25z m996 4 c63 -16 65 -20 49 -91 -8 -34 -22 -86 -30 -115 l-16 -54 -36 5
c-21 2 -68 12 -106 23 -66 17 -68 18 -40 27 36 12 69 40 103 91 14 21 30 45
36 52 6 9 3 22 -12 42 -25 33 -16 37 52 20z m-139 -19 c32 -7 63 -15 67 -19
14 -12 -3 -38 -22 -33 -15 4 -20 -3 -25 -31 -4 -23 -16 -42 -32 -53 -24 -15
-33 -16 -128 0 -79 12 -105 21 -118 38 -10 11 -18 25 -18 30 0 14 47 10 53 -4
3 -8 39 -19 93 -27 82 -12 88 -11 101 6 22 31 16 54 -17 61 -21 4 -30 11 -30
24 0 22 0 22 76 8z m-436 -139 l25 -20 -47 0 c-52 0 -58 5 -30 26 22 17 22 17
52 -6z m-354 -4 c24 -18 18 -24 -26 -26 -52 -3 -54 -2 -29 20 29 23 30 24 55
6z m527 4 c7 -6 20 -16 30 -23 16 -11 12 -12 -25 -9 -64 5 -73 9 -58 27 15 17
36 19 53 5z"/>
<path d="M670 1333 c-25 -8 -51 -16 -58 -19 -9 -2 9 -29 48 -74 l62 -69 -7
-90 -7 -90 48 18 c27 10 75 24 106 31 65 15 67 30 4 30 l-43 0 -39 140 c-43
153 -39 149 -114 123z m66 -68 c25 -60 16 -70 -21 -25 -19 23 -32 46 -29 51
12 20 36 7 50 -26z m48 -167 c9 -34 8 -38 -9 -38 -10 0 -15 10 -15 30 0 35 15
40 24 8z"/>
<path d="M2325 1338 c-2 -7 -11 -40 -20 -73 -9 -33 -26 -90 -37 -127 l-20 -68
-43 0 c-24 0 -47 -4 -50 -10 -3 -5 2 -10 12 -10 10 0 54 -11 98 -25 96 -30
108 -31 101 -7 -2 9 -8 47 -11 83 l-7 66 61 68 c33 38 58 71 55 74 -5 6 -114
41 -127 41 -4 0 -9 -6 -12 -12z m60 -48 c7 -12 -40 -80 -55 -80 -7 0 5 63 17
83 6 11 31 9 38 -3z m-66 -212 c1 -12 -6 -18 -19 -18 -17 0 -19 4 -14 28 4 15
9 31 12 36 6 11 20 -20 21 -46z"/>
<path d="M574 1169 c-7 -12 13 -29 35 -29 11 0 11 -4 -2 -18 -21 -23 -21 -32
-3 -32 7 0 16 8 19 19 3 14 11 18 33 14 29 -4 29 -4 6 10 -21 12 -22 15 -7 27
8 7 13 15 10 18 -3 3 -13 -2 -24 -12 -16 -15 -19 -15 -31 -1 -15 18 -26 19
-36 4z"/>
<path d="M2400 1172 c0 -6 5 -14 12 -18 7 -5 5 -12 -8 -22 -18 -13 -17 -14 8
-10 20 4 28 0 31 -14 3 -10 12 -18 21 -18 20 0 20 9 -1 32 -14 16 -15 18 0 18
19 0 31 16 22 31 -5 7 -14 4 -26 -7 -18 -16 -20 -16 -39 1 -11 10 -20 13 -20
7z"/>
<path d="M1250 1145 c-105 -15 -241 -44 -252 -54 -9 -8 13 -101 25 -101 5 0
43 9 85 19 130 33 249 45 445 46 l187 0 0 30 c0 17 3 40 6 53 l6 22 -203 -1
c-112 -1 -247 -7 -299 -14z m298 -1 c26 -5 29 -9 23 -33 -7 -24 -11 -26 -67
-26 -49 0 -59 3 -62 18 -8 40 32 56 106 41z m106 -25 l49 -30 -5 25 c-4 20 -1
26 13 26 16 0 17 -4 7 -32 -15 -44 -12 -43 -51 -14 -42 32 -51 33 -43 1 6 -25
0 -31 -19 -17 -11 8 -17 72 -6 72 4 0 29 -14 55 -31z m-311 -11 l-6 -31 46 6
c29 4 47 3 47 -3 0 -6 -26 -10 -59 -10 -57 0 -58 1 -53 25 2 15 0 25 -7 25 -7
0 -9 5 -6 10 3 6 15 10 25 10 17 0 19 -5 13 -32z m-68 -18 c28 -29 28 -30 6
-30 -14 0 -20 4 -15 12 5 8 -2 9 -26 5 -18 -4 -39 -7 -46 -7 -8 0 -14 -7 -14
-15 0 -8 -7 -15 -15 -15 -13 0 -12 6 5 40 26 51 62 55 105 10z m-205 -10 c-58
-19 -51 -26 12 -11 41 10 70 -7 46 -26 -18 -14 -98 -33 -98 -23 0 5 20 12 45
16 25 3 45 11 45 16 0 6 -14 7 -37 3 -60 -12 -67 -11 -71 6 -2 12 8 20 35 27
64 17 81 11 23 -8z"/>
<path d="M1460 1110 c0 -17 7 -20 44 -20 29 0 46 5 49 14 7 17 -13 26 -59 26
-27 0 -34 -4 -34 -20z"/>
<path d="M1195 1099 c-10 -15 -4 -18 27 -12 15 3 25 9 22 14 -7 12 -41 11 -49
-2z"/>
<path d="M1777 1113 c-11 -66 -9 -73 21 -73 24 0 158 -26 233 -45 25 -6 27 -4
39 45 7 28 11 52 9 54 -5 4 -200 43 -255 51 l-41 6 -6 -38z m92 7 c31 0 54
-25 47 -48 -6 -18 -15 -22 -44 -21 -63 2 -77 10 -77 47 0 32 1 33 29 28 15 -3
36 -6 45 -6z m191 -51 c0 -5 -10 -5 -22 0 -44 16 -78 21 -78 12 0 -4 18 -11
40 -15 22 -3 40 -11 40 -16 0 -6 -9 -6 -26 0 -32 13 -54 13 -54 1 0 -6 20 -13
45 -17 25 -3 45 -11 45 -16 0 -5 -9 -7 -20 -4 -21 6 -36 10 -83 20 -25 6 -26
8 -12 22 9 9 13 24 10 34 -5 17 -3 17 55 3 33 -9 60 -19 60 -24z"/>
<path d="M1817 1090 c-3 -12 0 -20 8 -20 7 0 27 -3 44 -6 26 -6 31 -4 31 14 0
36 -74 47 -83 12z"/>
<path d="M915 1095 c-22 -7 -33 -13 -24 -14 9 -1 31 -4 48 -7 24 -5 31 -3 31
9 0 23 -11 26 -55 12z"/>
<path d="M2105 1092 c-8 -22 -2 -24 51 -15 l49 8 -47 11 c-39 9 -48 9 -53 -4z"/>
<path d="M1295 1020 c-134 -14 -135 -14 -135 -56 l0 -35 88 8 c113 10 474 10
578 0 l81 -8 7 32 c3 18 4 35 1 37 -21 21 -471 37 -620 22z m198 -15 c1 -6
-13 -11 -30 -13 -21 -2 -33 -9 -33 -18 0 -8 -3 -14 -7 -14 -5 0 -8 11 -8 25 0
23 3 24 34 19 26 -5 32 -4 26 6 -5 8 -3 11 4 9 7 -3 13 -9 14 -14z m97 0 c0
-10 -10 -15 -30 -15 -16 0 -30 -4 -30 -10 0 -22 -15 -8 -16 15 -2 23 2 25 37
25 28 0 39 -4 39 -15z m35 -13 c0 -11 10 -18 28 -20 22 -3 27 1 27 17 0 12 4
21 9 21 14 0 0 -41 -15 -47 -8 -3 -25 -2 -39 1 -19 5 -25 13 -25 33 0 14 3 23
7 19 4 -4 8 -15 8 -24z m-277 10 c7 -5 10 -16 6 -25 -7 -20 -78 -24 -90 -5
-16 25 53 49 84 30z m407 -2 l-30 -7 29 -8 c19 -5 31 -4 36 5 5 8 8 4 7 -12
-2 -21 -5 -24 -19 -17 -10 5 -28 7 -40 4 -19 -5 -23 -2 -23 20 0 22 4 25 35
24 l35 -1 -30 -8z m105 -11 c-23 -8 -23 -8 6 -6 21 2 30 -1 28 -8 -3 -6 -19
-10 -37 -8 -29 2 -30 2 -7 -6 24 -9 24 -9 -6 -10 -28 -1 -31 2 -26 24 3 21 10
25 36 24 30 -1 30 -1 6 -10z"/>
<path d="M1287 994 c-15 -15 -6 -24 24 -24 20 0 29 4 27 13 -5 14 -40 21 -51
11z"/>
<path d="M800 491 l-65 -6 0 -80 0 -80 46 -3 c46 -3 46 -3 45 27 -1 18 -6 31
-13 31 -7 0 -13 7 -13 15 0 8 5 15 10 15 6 0 10 8 10 18 0 10 5 23 12 30 17
17 48 15 48 -3 0 -8 -7 -15 -15 -15 -8 0 -15 -5 -15 -10 0 -6 7 -13 15 -16 19
-8 20 -34 2 -34 -9 0 -14 -12 -15 -31 -1 -27 2 -30 26 -27 26 3 27 5 30 78 2
62 0 77 -14 87 -10 7 -20 12 -23 11 -3 -1 -35 -4 -71 -7z"/>
<path d="M1010 480 c-15 -15 -20 -33 -20 -73 0 -76 13 -89 87 -90 82 -1 93 9
93 89 0 54 -3 65 -22 78 -33 23 -113 21 -138 -4z m141 -21 c14 -27 6 -109 -12
-120 -19 -12 -86 -11 -110 1 -15 9 -19 22 -19 63 0 29 5 58 12 65 7 7 36 12
65 12 43 0 54 -4 64 -21z"/>
<path d="M1052 438 c-30 -30 -3 -82 40 -76 29 4 47 50 28 72 -15 19 -51 21
-68 4z m56 -30 c-3 -25 -36 -37 -48 -17 -13 20 0 39 27 39 20 0 24 -4 21 -22z"/>
<path d="M1269 483 c-6 -6 -9 -44 -7 -85 l3 -73 79 -3 c57 -2 82 1 87 10 11
16 11 129 1 145 -10 16 -151 21 -163 6z m41 -99 c0 -32 -4 -44 -12 -42 -13 5
-20 51 -13 76 10 29 25 8 25 -34z m98 -1 c2 -34 0 -43 -12 -43 -12 0 -16 10
-16 35 0 32 -19 52 -21 23 -1 -7 -2 -22 -3 -32 0 -11 -7 -21 -13 -23 -9 -3
-13 9 -13 42 l0 46 38 -3 c36 -3 37 -4 40 -45z"/>
<path d="M1852 484 c-13 -9 -22 -26 -22 -41 0 -25 47 -123 59 -123 12 0 61 99
61 123 0 27 -32 57 -60 57 -9 0 -26 -7 -38 -16z m58 -43 c0 -26 -17 -36 -35
-21 -18 15 -8 40 16 40 12 0 19 -7 19 -19z"/>
<path d="M1627 474 c-4 -4 -7 -16 -7 -26 0 -15 -5 -18 -22 -12 -13 3 -30 13
-39 20 -8 8 -19 14 -22 14 -12 0 0 -64 12 -68 6 -2 9 -8 5 -13 -3 -5 2 -12 10
-15 21 -8 10 -24 -17 -25 l-22 0 22 -11 c30 -15 86 -2 110 25 19 19 47 96 39
104 -8 8 -62 14 -69 7z"/>
</g>
</svg>
